PathFileType	4	(X/Y/Z)	TVC_9_BWA3_walk_RCNL2025.trc
DataRate	CameraRate	NumFrames	NumMarkers	Units	OrigDataRate	OrigDataStartFrame	OrigNumFrames
100	100	9	27	mm	100	1	438
Frame#	Time	R_Shoulder			L_Shoulder			C7			J_Notch			R_Elbow			L_Elbow			R_Wrist			L_Wrist			R_Asis			L_Asis			R_Psis			L_Psis			Sacral			Thoracic			Sternum			R_Thigh_Lateral			R_Knee_Lateral			R_Shank_Lateral			R_Ankle_Lateral			R_Heel			R_Toe			L_Thigh_Lateral			L_Knee_Lateral			L_Shank_Lateral			L_Ankle_Lateral			L_Heel			L_Toe		
		X1	Y1	Z1	X2	Y2	Z2	X3	Y3	Z3	X4	Y4	Z4	X5	Y5	Z5	X6	Y6	Z6	X7	Y7	Z7	X8	Y8	Z8	X9	Y9	Z9	X10	Y10	Z10	X11	Y11	Z11	X12	Y12	Z12	X13	Y13	Z13	X14	Y14	Z14	X15	Y15	Z15	X16	Y16	Z16	X17	Y17	Z17	X18	Y18	Z18	X19	Y19	Z19	X20	Y20	Z20	X21	Y21	Z21	X22	Y22	Z22	X23	Y23	Z23	X24	Y24	Z24	X25	Y25	Z25	X26	Y26	Z26	X27	Y27	Z27
1	0.00000000	-1721.316284	1369.873535	-11.135055	-1743.649902	1360.012207	-405.383789	-1785.594116	1432.205933	-217.637238	-1635.895386	1324.159180	-205.316528	-1888.297607	1080.197754	68.462425	-1665.264893	1047.970337	-521.307678	-1911.658936	828.895721	46.256857	-1487.189453	878.650604	-515.757629	-1702.474976	918.538025	-48.097748	-1722.735352	924.169006	-351.288666	-1902.360107	944.260498	-132.122681	-1906.915527	951.136902	-230.589066	-1904.637817	947.698700	-181.355873	-1891.785889	1158.419678	-196.957794	-1593.563599	1131.820923	-203.920502	-1626.146851	531.713806	21.701365	-1588.649048	471.344208	-45.527561	-1547.920288	322.159149	4.128166	-1516.237793	92.606239	-65.974960	-1576.524780	65.270447	-126.273178	-1394.989990	90.253571	-105.736801	-1782.411011	560.847717	-369.694580	-1834.638794	437.909210	-309.025787	-1873.194214	297.120667	-353.317322	-1941.954590	83.554184	-271.649384	-1997.606567	63.999855	-214.399719	-1807.455200	40.223946	-246.788162
2	0.01000000	-1713.061768	1368.468140	-9.708958	-1734.808105	1359.157227	-404.157135	-1776.815186	1431.443359	-216.277451	-1627.028076	1323.444824	-203.847687	-1879.835449	1078.136475	69.241936	-1656.054199	1047.822754	-521.213318	-1903.506836	827.020996	47.252470	-1477.348877	878.921143	-514.875290	-1693.312622	917.495605	-47.309639	-1714.077515	923.203003	-350.783966	-1892.872925	943.184937	-131.004303	-1898.528442	950.328613	-229.353455	-1895.700684	946.756775	-180.178879	-1882.671021	1157.548828	-195.540070	-1585.191650	1130.630371	-202.979706	-1623.528564	528.548889	20.780420	-1580.681396	469.242157	-46.187931	-1538.178833	320.873718	3.034721	-1503.456177	91.187172	-68.553696	-1563.835449	63.338840	-128.904907	-1381.546143	91.718239	-107.718933	-1776.591553	560.765137	-369.316803	-1830.614136	438.002594	-308.896973	-1870.374878	297.630188	-353.429596	-1941.432861	84.496925	-272.048981	-1997.324707	65.510422	-214.920364	-1807.342407	40.141880	-246.773239
3	0.02000000	-1704.696533	1367.187500	-8.222556	-1725.956665	1358.472168	-402.839539	-1768.018066	1430.800781	-214.826035	-1618.139526	1322.865601	-202.337204	-1870.927979	1076.046875	70.136597	-1647.138672	1047.751709	-520.994324	-1894.704346	825.088043	48.324625	-1468.034363	879.061462	-513.919846	-1684.054443	916.587463	-46.493847	-1705.305664	922.394287	-350.198853	-1883.337769	942.254395	-129.858368	-1889.959351	949.551453	-228.077896	-1886.648560	945.902924	-178.968132	-1873.542114	1156.789917	-194.075317	-1576.519531	1129.676147	-201.930450	-1619.546631	525.932861	19.988853	-1572.856079	467.253845	-46.750591	-1529.396118	319.308502	1.929340	-1492.281982	89.706696	-70.948227	-1552.570679	61.555325	-131.439255	-1369.754517	92.453911	-109.547745	-1770.404541	560.702515	-368.895966	-1826.215454	438.155029	-308.767242	-1867.308838	298.243103	-353.585571	-1940.803101	85.613350	-272.507782	-1996.978516	67.270721	-215.519882	-1807.154541	40.079708	-246.778992
4	0.03000000	-1696.220825	1366.031372	-6.676003	-1717.095581	1357.957031	-401.431122	-1759.203247	1430.278198	-213.283081	-1609.229614	1322.421387	-200.785217	-1861.575195	1073.929443	71.146355	-1638.518311	1047.757080	-520.650940	-1885.251282	823.097412	49.473166	-1459.245972	879.071625	-512.891342	-1674.700806	915.813721	-45.650436	-1696.420410	921.742920	-349.533417	-1873.754883	941.468872	-128.684921	-1881.208984	948.806458	-226.763275	-1877.481934	945.137665	-177.724098	-1864.399170	1156.142944	-192.563614	-1567.546875	1128.958252	-200.772537	-1614.211914	523.864990	19.331486	-1565.176392	465.380768	-47.214920	-1521.562500	317.470123	0.814905	-1482.705444	88.168022	-73.155952	-1542.721680	59.922340	-133.871414	-1359.600952	92.464340	-111.221184	-1763.851440	560.661133	-368.433472	-1821.439209	438.367065	-308.637207	-1863.993408	298.960266	-353.785004	-1940.063232	86.905754	-273.025055	-1996.565674	69.283913	-216.197403	-1806.891479	40.036469	-246.805542
5	0.04000000	-1687.635254	1364.999878	-5.069746	-1708.225342	1357.611694	-399.932434	-1750.370728	1429.875366	-211.649002	-1600.298950	1322.112061	-199.192078	-1851.777710	1071.785278	72.270981	-1630.192993	1047.838745	-520.183411	-1875.146851	821.050873	50.697646	-1450.983276	878.951996	-511.789795	-1665.252808	915.174683	-44.779640	-1687.422852	921.248840	-348.787659	-1864.125610	940.828613	-127.484016	-1872.279907	948.096741	-225.412109	-1868.202759	944.462677	-176.448063	-1855.242676	1155.607910	-191.005188	-1558.273438	1128.477417	-199.505524	-1607.570312	522.337708	18.815647	-1557.650024	463.627106	-47.579201	-1514.650146	315.377472	-0.300569	-1474.698853	86.579910	-75.170174	-1534.263550	58.446274	-136.188797	-1351.046265	91.762512	-112.734261	-1756.934082	560.643433	-367.932709	-1816.273926	438.639496	-308.508026	-1860.420532	299.783966	-354.026764	-1939.207886	88.380669	-273.598663	-1996.078735	71.559219	-216.950211	-1806.553223	40.009449	-246.853226
6	0.05000000	-1678.941528	1364.092773	-3.404735	-1699.346558	1357.435303	-398.344452	-1741.521118	1429.591919	-209.924637	-1591.348145	1321.936768	-197.558517	-1841.536377	1069.617065	73.510025	-1622.162842	1047.996582	-519.592468	-1864.389832	818.952057	51.997187	-1443.245850	878.703278	-510.615250	-1655.712891	914.670898	-43.881912	-1678.316406	920.912109	-347.961792	-1854.452148	940.333862	-126.255760	-1863.177490	947.428955	-224.029602	-1858.814819	943.881409	-175.142681	-1846.073364	1155.184448	-189.400574	-1548.699463	1128.234009	-198.128738	-1599.740234	521.329590	18.447285	-1550.289673	462.000946	-47.839947	-1508.600708	313.069122	-1.400910	-1468.206665	84.959274	-76.978798	-1527.146606	57.138916	-138.368698	-1344.013306	90.378944	-114.078201	-1749.653076	560.653381	-367.398682	-1810.696289	438.972870	-308.381348	-1856.572510	300.718811	-354.307770	-1938.224731	90.051407	-274.224243	-1995.500854	74.115738	-217.771942	-1806.140381	39.993073	-246.922516
7	0.06000000	-1670.142456	1363.309204	-1.682661	-1690.460205	1357.426880	-396.669067	-1732.655273	1429.427124	-208.111557	-1582.378296	1321.894409	-195.885712	-1830.852783	1067.429321	74.862686	-1614.427368	1048.229980	-518.879517	-1852.978027	816.807068	53.370352	-1436.032471	878.326660	-509.367752	-1646.085571	914.303284	-42.957802	-1669.106445	920.732544	-347.056305	-1844.738525	939.984741	-125.000359	-1853.910889	946.814514	-222.624313	-1849.324707	943.399628	-173.812336	-1836.892334	1154.872314	-187.750732	-1538.827393	1128.228027	-196.641632	-1590.950317	520.802124	18.228716	-1543.107910	460.513763	-47.990849	-1503.315674	310.609283	-2.459120	-1463.136841	83.332474	-78.564789	-1521.291138	56.017544	-140.378464	-1338.379883	88.368996	-115.240143	-1742.003540	560.696594	-366.838013	-1804.665771	439.366516	-308.259735	-1852.417236	301.772217	-354.621918	-1937.091797	91.940224	-274.894379	-1994.800415	76.986038	-218.650696	-1805.655396	39.978069	-247.013824
8	0.07000000	-1661.242065	1362.648071	0.093798	-1681.568115	1357.584106	-394.909119	-1723.774780	1429.379395	-206.212296	-1573.391357	1321.983032	-194.175385	-1819.729492	1065.228394	76.327728	-1606.986206	1048.538086	-518.046631	-1840.908386	814.625305	54.815089	-1429.341248	877.823792	-508.047226	-1636.377563	914.072815	-42.007782	-1659.801270	920.709717	-346.071899	-1834.990845	939.781250	-123.718109	-1844.494385	946.269836	-221.208542	-1839.742615	943.025543	-172.463326	-1827.701782	1154.670776	-186.057175	-1528.664429	1128.457886	-195.044159	-1581.543335	520.702026	18.160913	-1536.113159	459.178925	-48.022224	-1498.651123	308.089325	-3.436281	-1459.356934	81.734352	-79.908531	-1516.585205	55.103161	-142.178925	-1333.976807	85.816780	-116.203743	-1733.970093	560.781799	-366.259705	-1798.121704	439.817596	-308.147614	-1847.904907	302.954651	-354.959778	-1935.775146	94.079872	-275.598236	-1993.927124	80.218628	-219.567947	-1805.104370	39.951019	-247.126999
9	0.08000000	-1652.246094	1362.107300	1.920766	-1672.672119	1357.903687	-393.068756	-1714.881226	1429.446777	-204.230652	-1564.389771	1322.199463	-192.429840	-1808.170898	1063.023071	77.903397	-1599.838501	1048.919312	-517.096741	-1828.176697	812.419434	56.328776	-1423.169373	877.196960	-506.653427	-1626.598389	913.980347	-41.032005	-1650.412720	920.842224	-345.009888	-1825.217407	939.722961	-122.409462	-1834.947388	945.815857	-219.797638	-1830.082397	942.769409	-171.103550	-1818.504517	1154.578613	-184.322037	-1518.225220	1128.919189	-193.337662	-1571.925781	520.966492	18.249193	-1529.304443	458.010040	-47.922165	-1494.422119	305.622437	-4.283454	-1456.695679	80.205017	-80.991852	-1512.888794	54.416557	-143.730179	-1330.597534	82.834335	-116.951118	-1725.523315	560.920654	-365.676971	-1790.981567	440.319702	-308.051758	-1842.965454	304.278778	-355.308746	-1934.225464	96.513985	-276.321747	-1992.807983	83.878693	-220.498734	-1804.497803	39.894619	-247.260422
